# xmcd
# 
# Track frame offsets:
#     150
#     13202
#     30802
#     46476
#     65430
#     78996
#     92576
#     110518
#     122980
#     141504
#     154284
#     168446
#     183074
#     197762
# 
# Disc length: 2837
# 
# Revision: 0
# Processed by: cddbd v1.5.2PL0 Copyright (c) Steve Scherf et al.
# Submitted via: fre:ac v1.0.17
# 
DISCID=b80b130e
DTITLE=Willie Nelson - Band of Brothers
DYEAR=2014
DGENRE=Country
TTITLE0=Bring It On
TTITLE1=Guitar in the Corner
TTITLE2=The Wall
TTITLE3=Whenever You Come Around
TTITLE4=Wives and Girlfriends
TTITLE5=I Thought I Left You
TTITLE6=Send Me a Picture
TTITLE7=Used to Her
TTITLE8=The Git Go (feat. Jamey Johnson)
TTITLE9=Band of Brothers
TTITLE10=Hard to Be an Outlaw
TTITLE11=Crazy Like Me
TTITLE12=The Songwriters
TTITLE13=I've Got a Lot of Traveling to Do
EXTD=
EXTT0=
EXTT1=
EXTT2=
EXTT3=
EXTT4=
EXTT5=
EXTT6=
EXTT7=
EXTT8=
EXTT9=
EXTT10=
EXTT11=
EXTT12=
EXTT13=
PLAYORDER=
